<mxfile host="www.draw.io" modified="2019-12-05T02:48:10.453Z" agent="Mozilla/5.0 (Windows NT 10.0; Win64; x64; rv:71.0) Gecko/20100101 Firefox/71.0" etag="S78nzADdxSSivrrXj6kE" version="12.3.6" type="github" pages="1">
  <diagram id="NvCQgJdSBM-2ycp9VXMA" name="Page-1">
    <mxGraphModel dx="1097" dy="671" grid="1" gridSize="10" guides="1" tooltips="1" connect="1" arrows="1" fold="1" page="1" pageScale="1" pageWidth="1400" pageHeight="850" math="0" shadow="0">
      <root>
        <mxCell id="0"/>
        <mxCell id="1" parent="0"/>
        <mxCell id="OlXNlt9vMctowWqhXaBs-2" value="Current GIS Licensing Process at UCLA - Nov 2019" style="text;html=1;align=center;verticalAlign=middle;whiteSpace=wrap;rounded=0;fontSize=25;fillColor=#ffffff;" parent="1" vertex="1">
          <mxGeometry x="280" y="50" width="840" height="20" as="geometry"/>
        </mxCell>
        <mxCell id="OlXNlt9vMctowWqhXaBs-3" value="Software Central&#xa;(Office of Information Technology)" style="rounded=1;fillColor=#10739E;strokeColor=none;shadow=1;gradientColor=none;fontStyle=1;fontColor=#FFFFFF;fontSize=14;verticalAlign=middle;whiteSpace=wrap;" parent="1" vertex="1">
          <mxGeometry x="390.25" y="580" width="200" height="60" as="geometry"/>
        </mxCell>
        <mxCell id="OlXNlt9vMctowWqhXaBs-4" value="ArcGIS Pro" style="ellipse;whiteSpace=wrap;html=1;rounded=0;shadow=0;align=center;fillColor=#d5e8d4;strokeColor=#82b366;fontStyle=1" parent="1" vertex="1">
          <mxGeometry x="843.25" y="358" width="120" height="80" as="geometry"/>
        </mxCell>
        <mxCell id="OlXNlt9vMctowWqhXaBs-5" value="ArcGIS Desktop" style="ellipse;whiteSpace=wrap;html=1;rounded=0;shadow=0;align=center;fillColor=#fff2cc;strokeColor=#d6b656;fontStyle=1" parent="1" vertex="1">
          <mxGeometry x="430.25" y="358" width="120" height="80" as="geometry"/>
        </mxCell>
        <mxCell id="OlXNlt9vMctowWqhXaBs-36" style="rounded=0;orthogonalLoop=1;jettySize=auto;html=1;fontSize=12;fontStyle=1;strokeColor=#23445D;strokeWidth=4;endFill=1;endArrow=block;entryX=0.5;entryY=0;entryDx=0;entryDy=0;exitX=0.5;exitY=1;exitDx=0;exitDy=0;" parent="1" source="OlXNlt9vMctowWqhXaBs-6" target="WTA2DejnojP7PEgxWPWl-4" edge="1">
          <mxGeometry relative="1" as="geometry"/>
        </mxCell>
        <mxCell id="OlXNlt9vMctowWqhXaBs-6" value="&lt;div&gt;ArcGIS Online&lt;/div&gt;" style="ellipse;whiteSpace=wrap;html=1;rounded=0;shadow=0;align=center;fillColor=#e1d5e7;strokeColor=#9673a6;fontStyle=1" parent="1" vertex="1">
          <mxGeometry x="640.25" y="358" width="120" height="80" as="geometry"/>
        </mxCell>
        <mxCell id="OlXNlt9vMctowWqhXaBs-54" value="" style="edgeStyle=none;rounded=0;orthogonalLoop=1;jettySize=auto;html=1;fontSize=12;fontStyle=1;strokeColor=#23445D;strokeWidth=4;endFill=0;endArrow=none;startArrow=classic;startFill=1;" parent="1" source="OlXNlt9vMctowWqhXaBs-7" target="OlXNlt9vMctowWqhXaBs-53" edge="1">
          <mxGeometry relative="1" as="geometry"/>
        </mxCell>
        <mxCell id="OlXNlt9vMctowWqhXaBs-7" value="What Type?" style="rounded=0;fillColor=#f5f5f5;strokeColor=#666666;shadow=1;fontStyle=1;fontColor=#333333;fontSize=19;" parent="1" vertex="1">
          <mxGeometry x="590" y="247" width="220" height="60" as="geometry"/>
        </mxCell>
        <mxCell id="OlXNlt9vMctowWqhXaBs-53" value="I want an ESRI License.." style="rounded=0;fillColor=#f5f5f5;strokeColor=#666666;shadow=1;fontStyle=1;fontColor=#333333;fontSize=19;" parent="1" vertex="1">
          <mxGeometry x="590" y="107" width="220" height="60" as="geometry"/>
        </mxCell>
        <mxCell id="OlXNlt9vMctowWqhXaBs-8" value="Department Recharge" style="rounded=0;fillColor=#E35D6A;strokeColor=#6F0000;shadow=1;fontStyle=1;fontSize=14;fontColor=#ffffff;whiteSpace=wrap;" parent="1" vertex="1">
          <mxGeometry x="425.25" y="772" width="130" height="60" as="geometry"/>
        </mxCell>
        <mxCell id="OlXNlt9vMctowWqhXaBs-16" value="IDRE FTP" style="rounded=1;fillColor=#10739E;strokeColor=none;shadow=1;gradientColor=none;fontStyle=1;fontColor=#FFFFFF;fontSize=14;verticalAlign=middle;whiteSpace=wrap;" parent="1" vertex="1">
          <mxGeometry x="857" y="670" width="93" height="60" as="geometry"/>
        </mxCell>
        <mxCell id="OlXNlt9vMctowWqhXaBs-17" value="UCLA ArcGIS Online:&#xa;uclagis.maps.arcgis.com" style="rounded=1;fillColor=#10739E;strokeColor=none;shadow=1;gradientColor=none;fontStyle=1;fontColor=#FFFFFF;fontSize=14;verticalAlign=middle;whiteSpace=wrap;" parent="1" vertex="1">
          <mxGeometry x="611.75" y="670" width="173" height="60" as="geometry"/>
        </mxCell>
        <mxCell id="OlXNlt9vMctowWqhXaBs-22" value="" style="elbow=vertical;strokeWidth=4;endArrow=block;endFill=1;fontStyle=1;strokeColor=#23445D;fontSize=12;rounded=0;exitX=1;exitY=1;exitDx=0;exitDy=0;entryX=0;entryY=0;entryDx=0;entryDy=0;" parent="1" source="OlXNlt9vMctowWqhXaBs-5" target="WTA2DejnojP7PEgxWPWl-4" edge="1">
          <mxGeometry x="2.5" y="152" width="100" height="100" as="geometry">
            <mxPoint x="919.166666666667" y="502.3333333333335" as="sourcePoint"/>
            <mxPoint x="942.5" y="632" as="targetPoint"/>
            <mxPoint y="-30" as="offset"/>
          </mxGeometry>
        </mxCell>
        <mxCell id="OlXNlt9vMctowWqhXaBs-29" value="" style="elbow=vertical;strokeWidth=4;endArrow=block;endFill=1;fontStyle=1;strokeColor=#23445D;fontSize=12;rounded=0;exitX=0.5;exitY=1;exitDx=0;exitDy=0;entryX=1;entryY=0;entryDx=0;entryDy=0;" parent="1" source="OlXNlt9vMctowWqhXaBs-7" target="OlXNlt9vMctowWqhXaBs-5" edge="1">
          <mxGeometry x="-216.5" y="252" width="100" height="100" as="geometry">
            <mxPoint x="962.5" y="552" as="sourcePoint"/>
            <mxPoint x="929" y="572" as="targetPoint"/>
            <mxPoint x="18" y="-37" as="offset"/>
          </mxGeometry>
        </mxCell>
        <mxCell id="OlXNlt9vMctowWqhXaBs-30" value="" style="elbow=vertical;strokeWidth=4;endArrow=block;endFill=1;fontStyle=1;strokeColor=#23445D;fontSize=12;rounded=0;exitX=0.5;exitY=1;exitDx=0;exitDy=0;entryX=0.5;entryY=0;entryDx=0;entryDy=0;" parent="1" source="OlXNlt9vMctowWqhXaBs-7" target="OlXNlt9vMctowWqhXaBs-6" edge="1">
          <mxGeometry x="-206.5" y="262" width="100" height="100" as="geometry">
            <mxPoint x="972.5" y="562" as="sourcePoint"/>
            <mxPoint x="939" y="582" as="targetPoint"/>
            <mxPoint x="18" y="-37" as="offset"/>
          </mxGeometry>
        </mxCell>
        <mxCell id="OlXNlt9vMctowWqhXaBs-31" value="" style="elbow=vertical;strokeWidth=4;endArrow=block;endFill=1;fontStyle=1;strokeColor=#23445D;fontSize=12;rounded=0;exitX=0.5;exitY=1;exitDx=0;exitDy=0;entryX=0.5;entryY=0;entryDx=0;entryDy=0;" parent="1" source="OlXNlt9vMctowWqhXaBs-7" target="OlXNlt9vMctowWqhXaBs-4" edge="1">
          <mxGeometry x="-196.5" y="272" width="100" height="100" as="geometry">
            <mxPoint x="982.5" y="572" as="sourcePoint"/>
            <mxPoint x="949" y="592" as="targetPoint"/>
            <mxPoint x="18" y="-37" as="offset"/>
          </mxGeometry>
        </mxCell>
        <mxCell id="OlXNlt9vMctowWqhXaBs-38" value="" style="elbow=vertical;strokeWidth=4;endArrow=block;endFill=1;fontStyle=1;strokeColor=#23445D;fontSize=12;rounded=0;exitX=0.5;exitY=1;exitDx=0;exitDy=0;entryX=0.5;entryY=0;entryDx=0;entryDy=0;" parent="1" source="OlXNlt9vMctowWqhXaBs-3" target="OlXNlt9vMctowWqhXaBs-8" edge="1">
          <mxGeometry x="-216.5" y="262" width="100" height="100" as="geometry">
            <mxPoint x="483.5" y="482" as="sourcePoint"/>
            <mxPoint x="483.5" y="602" as="targetPoint"/>
            <mxPoint x="18" y="-37" as="offset"/>
          </mxGeometry>
        </mxCell>
        <mxCell id="OlXNlt9vMctowWqhXaBs-50" value="Log-in" style="rounded=0;fillColor=#E35D6A;strokeColor=#6F0000;shadow=1;fontStyle=1;fontSize=14;fontColor=#ffffff;" parent="1" vertex="1">
          <mxGeometry x="633.25" y="773" width="130" height="60" as="geometry"/>
        </mxCell>
        <mxCell id="OlXNlt9vMctowWqhXaBs-51" value="Download Software" style="rounded=0;fillColor=#E35D6A;strokeColor=#6F0000;shadow=1;fontStyle=1;fontSize=14;fontColor=#ffffff;whiteSpace=wrap;" parent="1" vertex="1">
          <mxGeometry x="838.25" y="772" width="130" height="60" as="geometry"/>
        </mxCell>
        <mxCell id="OlXNlt9vMctowWqhXaBs-52" value="" style="group" parent="1" vertex="1" connectable="0">
          <mxGeometry x="648" y="758" width="360" height="28" as="geometry"/>
        </mxCell>
        <mxCell id="OlXNlt9vMctowWqhXaBs-47" style="rounded=0;orthogonalLoop=1;jettySize=auto;html=1;fontSize=12;fontStyle=1;strokeColor=#23445D;strokeWidth=4;endFill=1;endArrow=block;exitX=0.5;exitY=1;exitDx=0;exitDy=0;entryX=0.5;entryY=0;entryDx=0;entryDy=0;" parent="OlXNlt9vMctowWqhXaBs-52" source="OlXNlt9vMctowWqhXaBs-17" target="OlXNlt9vMctowWqhXaBs-50" edge="1">
          <mxGeometry relative="1" as="geometry">
            <mxPoint x="60.58820702629623" y="-125.00192221185284" as="sourcePoint"/>
            <mxPoint x="50" y="145" as="targetPoint"/>
          </mxGeometry>
        </mxCell>
        <mxCell id="OlXNlt9vMctowWqhXaBs-48" style="rounded=0;orthogonalLoop=1;jettySize=auto;html=1;fontSize=12;fontStyle=1;strokeColor=#23445D;strokeWidth=4;endFill=1;endArrow=block;exitX=0.5;exitY=1;exitDx=0;exitDy=0;entryX=0.5;entryY=0;entryDx=0;entryDy=0;" parent="OlXNlt9vMctowWqhXaBs-52" source="OlXNlt9vMctowWqhXaBs-16" target="OlXNlt9vMctowWqhXaBs-51" edge="1">
          <mxGeometry relative="1" as="geometry">
            <mxPoint x="133.50000000000023" y="54" as="sourcePoint"/>
            <mxPoint x="373.5" y="144" as="targetPoint"/>
          </mxGeometry>
        </mxCell>
        <mxCell id="WTA2DejnojP7PEgxWPWl-1" style="rounded=0;orthogonalLoop=1;jettySize=auto;html=1;exitX=0.5;exitY=1;exitDx=0;exitDy=0;fontSize=12;fontStyle=1;strokeColor=#23445D;strokeWidth=4;endFill=1;endArrow=block;entryX=1;entryY=0;entryDx=0;entryDy=0;" parent="1" source="OlXNlt9vMctowWqhXaBs-4" target="WTA2DejnojP7PEgxWPWl-4" edge="1">
          <mxGeometry relative="1" as="geometry">
            <mxPoint x="903" y="452" as="sourcePoint"/>
            <mxPoint x="820" y="472" as="targetPoint"/>
          </mxGeometry>
        </mxCell>
        <mxCell id="WTA2DejnojP7PEgxWPWl-2" value="Yes" style="edgeStyle=orthogonalEdgeStyle;rounded=0;orthogonalLoop=1;jettySize=auto;html=1;fontSize=16;fontStyle=1;strokeColor=#23445D;strokeWidth=4;endFill=1;endArrow=block;entryX=0.5;entryY=0;entryDx=0;entryDy=0;exitX=0;exitY=0.5;exitDx=0;exitDy=0;verticalAlign=middle;labelBackgroundColor=#ffffff;spacing=3;" parent="1" source="WTA2DejnojP7PEgxWPWl-4" target="WTA2DejnojP7PEgxWPWl-3" edge="1">
          <mxGeometry x="0.0868" relative="1" as="geometry">
            <mxPoint x="930" y="500" as="sourcePoint"/>
            <mxPoint x="790" y="640" as="targetPoint"/>
            <Array as="points">
              <mxPoint x="903" y="515"/>
            </Array>
            <mxPoint as="offset"/>
          </mxGeometry>
        </mxCell>
        <mxCell id="WTA2DejnojP7PEgxWPWl-17" value="Only for&lt;br&gt;&lt;br&gt;ArcGIS Desktop" style="edgeStyle=orthogonalEdgeStyle;rounded=0;orthogonalLoop=1;jettySize=auto;html=1;labelBackgroundColor=none;fontSize=11;fontStyle=1;strokeColor=#d6b656;strokeWidth=4;endFill=1;endArrow=block;fillColor=#fff2cc;" parent="1" source="WTA2DejnojP7PEgxWPWl-3" target="WTA2DejnojP7PEgxWPWl-16" edge="1">
          <mxGeometry x="-0.1455" relative="1" as="geometry">
            <mxPoint as="offset"/>
          </mxGeometry>
        </mxCell>
        <mxCell id="WTA2DejnojP7PEgxWPWl-3" value="Email IDRE" style="rounded=1;fillColor=#10739E;strokeColor=none;shadow=1;gradientColor=none;fontStyle=1;fontColor=#FFFFFF;fontSize=14;verticalAlign=middle;whiteSpace=wrap;" parent="1" vertex="1">
          <mxGeometry x="857" y="580" width="93" height="60" as="geometry"/>
        </mxCell>
        <mxCell id="WTA2DejnojP7PEgxWPWl-16" value="Contact Staff/Faculty" style="rounded=1;fillColor=#10739E;strokeColor=none;shadow=1;gradientColor=none;fontStyle=1;fontColor=#FFFFFF;fontSize=14;verticalAlign=middle;whiteSpace=wrap;" parent="1" vertex="1">
          <mxGeometry x="654" y="580" width="93" height="60" as="geometry"/>
        </mxCell>
        <mxCell id="WTA2DejnojP7PEgxWPWl-7" value="No" style="rounded=0;orthogonalLoop=1;jettySize=auto;html=1;fontSize=16;fontStyle=1;strokeColor=#23445D;strokeWidth=4;endFill=1;endArrow=block;entryX=0.5;entryY=0;entryDx=0;entryDy=0;edgeStyle=orthogonalEdgeStyle;exitX=0;exitY=0.5;exitDx=0;exitDy=0;" parent="1" source="WTA2DejnojP7PEgxWPWl-4" target="OlXNlt9vMctowWqhXaBs-3" edge="1">
          <mxGeometry x="-0.5067" relative="1" as="geometry">
            <mxPoint x="650" y="528" as="sourcePoint"/>
            <mxPoint x="490" y="530" as="targetPoint"/>
            <mxPoint as="offset"/>
          </mxGeometry>
        </mxCell>
        <mxCell id="WTA2DejnojP7PEgxWPWl-4" value="&lt;font color=&quot;#030303&quot;&gt;Are you a student?&lt;/font&gt;" style="rhombus;whiteSpace=wrap;html=1;rounded=1;shadow=0;fontSize=14;fontColor=#FFFFFF;fontStyle=1;strokeColor=none;fillColor=#D4E1F5;gradientColor=none;" parent="1" vertex="1">
          <mxGeometry x="643" y="470" width="115" height="90" as="geometry"/>
        </mxCell>
        <mxCell id="WTA2DejnojP7PEgxWPWl-15" value="For ArcGIS Online&#xa;&#xa;ArcGIS Pro" style="elbow=vertical;strokeWidth=4;endArrow=block;endFill=1;fontStyle=1;strokeColor=#b85450;fontSize=11;rounded=0;entryX=0;entryY=0.5;entryDx=0;entryDy=0;labelBackgroundColor=none;fillColor=#f8cecc;" parent="1" target="OlXNlt9vMctowWqhXaBs-17" edge="1">
          <mxGeometry width="100" height="100" as="geometry">
            <mxPoint x="490" y="700" as="sourcePoint"/>
            <mxPoint x="681.25" y="518.75" as="targetPoint"/>
            <mxPoint x="-1" as="offset"/>
          </mxGeometry>
        </mxCell>
        <mxCell id="WTA2DejnojP7PEgxWPWl-18" value="" style="edgeStyle=orthogonalEdgeStyle;rounded=0;orthogonalLoop=1;jettySize=auto;html=1;labelBackgroundColor=#ffffff;fontSize=12;exitX=0;exitY=0.5;exitDx=0;exitDy=0;entryX=1;entryY=0.5;entryDx=0;entryDy=0;fontStyle=1;strokeColor=#d6b656;strokeWidth=4;endFill=1;endArrow=block;fillColor=#fff2cc;" parent="1" source="WTA2DejnojP7PEgxWPWl-16" target="OlXNlt9vMctowWqhXaBs-3" edge="1">
          <mxGeometry relative="1" as="geometry">
            <mxPoint x="867" y="620" as="sourcePoint"/>
            <mxPoint x="756.9999999999998" y="620" as="targetPoint"/>
          </mxGeometry>
        </mxCell>
        <mxCell id="WTA2DejnojP7PEgxWPWl-19" value="" style="elbow=vertical;strokeWidth=4;endArrow=block;endFill=1;fontStyle=1;strokeColor=#b85450;fontSize=12;rounded=0;exitX=1;exitY=0.5;exitDx=0;exitDy=0;entryX=0;entryY=0.5;entryDx=0;entryDy=0;fillColor=#f8cecc;" parent="1" source="OlXNlt9vMctowWqhXaBs-17" target="OlXNlt9vMctowWqhXaBs-16" edge="1">
          <mxGeometry x="-186.5" y="282" width="100" height="100" as="geometry">
            <mxPoint x="710" y="316.9999999999999" as="sourcePoint"/>
            <mxPoint x="913.25" y="368" as="targetPoint"/>
            <mxPoint x="18" y="-37" as="offset"/>
          </mxGeometry>
        </mxCell>
        <mxCell id="WTA2DejnojP7PEgxWPWl-21" style="rounded=0;orthogonalLoop=1;jettySize=auto;html=1;fontSize=12;fontStyle=1;strokeColor=#23445D;strokeWidth=4;endFill=1;endArrow=block;exitX=0.5;exitY=1;exitDx=0;exitDy=0;" parent="1" source="WTA2DejnojP7PEgxWPWl-3" target="OlXNlt9vMctowWqhXaBs-16" edge="1">
          <mxGeometry relative="1" as="geometry">
            <mxPoint x="900" y="660" as="sourcePoint"/>
            <mxPoint x="739.2500000000002" y="502.5" as="targetPoint"/>
          </mxGeometry>
        </mxCell>
      </root>
    </mxGraphModel>
  </diagram>
</mxfile>
